# xmcd
#
# Track frame offsets:
#	150
#	13030
#	27435
#	47623
#	59222
#	74972
#	92668
#	112192
#	132374
#	145656
#	168787
#	182968
#	196317
#	216828
#
# Disc length: 3097 seconds
#
# Revision: 1
# Processed by: cddbd v1.5.2PL0 Copyright (c) Steve Scherf et al.
# Submitted via: EasyCDDAExtractor 5.0.6
#
DISCID=da0c170e
DTITLE=Arnaldo Antunes - Qualquer
DYEAR=2006
DGENRE=Brasil
TTITLE0=Para lá
TTITLE1=Sem Vocé
TTITLE2=Hotel Fraternité
TTITLE3=Qualquer
TTITLE4=Contato imediato
TTITLE5=2 perdidos
TTITLE6=Num dia
TTITLE7=Acabou chorare
TTITLE8=Eu não sou da sua rua
TTITLE9=Lua vermelha
TTITLE10=O que você quer saber de verdade   	 Letra
TTITLE11=As coisas
TTITLE12=Nossa Bagdá
TTITLE13=Da aurora até o luar
EXTD=
EXTT0=
EXTT1=
EXTT2=
EXTT3=
EXTT4=
EXTT5=
EXTT6=
EXTT7=
EXTT8=
EXTT9=
EXTT10=
EXTT11=
EXTT12=
EXTT13=
PLAYORDER=
